<svg width="127" height="126" viewBox="0 0 127 126" fill="none" xmlns="http://www.w3.org/2000/svg">
<path d="M61.7885 123.577C95.9133 123.577 123.577 95.9133 123.577 61.7885C123.577 27.6636 95.9133 0 61.7885 0C27.6636 0 0 27.6636 0 61.7885C0 95.9133 27.6636 123.577 61.7885 123.577Z" fill="white"/>
<path fill-rule="evenodd" clip-rule="evenodd" d="M61.7885 118.577C93.1519 118.577 118.577 93.1519 118.577 61.7885C118.577 30.4251 93.1519 5 61.7885 5C30.4251 5 5 30.4251 5 61.7885C5 93.1519 30.4251 118.577 61.7885 118.577ZM123.577 61.7885C123.577 95.9133 95.9133 123.577 61.7885 123.577C27.6636 123.577 0 95.9133 0 61.7885C0 27.6636 27.6636 0 61.7885 0C95.9133 0 123.577 27.6636 123.577 61.7885Z" fill="url(#paint0_linear)"/>
<path d="M37.636 24.6645H32.86V26.0205H37.636V24.6645ZM28.4199 29.5005H29.1759V30.2085H28.4199V29.5005ZM28.4199 27.8565H29.1759V28.5765H28.4199V27.8565ZM31.0119 28.5765H30.2199V27.8565H31.0119V28.5765ZM31.0119 30.2085H30.2199V29.5005H31.0119V30.2085ZM32.3679 33.1365V31.9005H30.3519V31.1925H32.1399V26.8605H30.3759V26.2125H32.2839V24.9765H30.3759V23.8485H29.0319V24.9765H27.076V26.2125H29.0319V26.8605H27.328V31.1925H29.0319V31.9005H26.9079V33.1365H29.0319V35.0325H30.3519V33.1365H32.3679ZM38.224 34.4925C38.02 33.4245 37.48 31.8765 36.844 30.6765L35.632 31.1565C35.92 31.7325 36.184 32.4045 36.4 33.0645L34.4799 33.1965C34.78 32.1045 35.1159 30.6885 35.3679 29.3685H38.044V28.0245H32.3799V29.3685H33.808C33.6399 30.6645 33.3639 32.1885 33.0759 33.2925L32.0679 33.3525L32.332 34.7445C33.568 34.6365 35.176 34.4925 36.772 34.3245C36.832 34.5765 36.868 34.8045 36.904 35.0205L38.224 34.4925Z" fill="#F79314"/>
<path d="M44.428 32.5605V31.8405H45.532V32.5605H44.428ZM45.532 30.1965V30.9165H44.428V30.1965H45.532ZM45.496 25.9845C45.436 26.4165 45.304 27.0285 45.184 27.4485L45.796 27.5805H44.08L44.62 27.4485C44.596 27.0525 44.488 26.4405 44.308 25.9845H45.496ZM41.488 26.8365H40.696V25.5405H41.488V26.8365ZM40.696 31.8885V30.4365H41.488V31.7445L40.696 31.8885ZM41.488 29.2845H40.696V27.9885H41.488V29.2845ZM48.856 29.1285C48.736 29.5845 48.5919 30.0285 48.424 30.4485C48.3759 29.9085 48.34 29.3205 48.316 28.6845H50.116V27.5805H48.268C48.244 26.7765 48.232 25.9365 48.232 25.0485C48.628 25.6125 49.012 26.3205 49.18 26.8005L50.164 26.2485C49.96 25.7085 49.492 24.9285 49 24.3405L48.232 24.7485V23.8485H46.984C46.996 25.1805 47.02 26.4405 47.056 27.5805H46.096C46.228 27.1965 46.396 26.6565 46.576 26.1405L45.76 25.9845H46.792V24.9405H45.568V23.8605H44.356V24.9405H43.18V24.2925H39.0639V25.5405H39.532V32.0805C39.28 32.1285 39.04 32.1645 38.824 32.1885L39.0639 33.4965C39.7839 33.3525 40.636 33.1725 41.488 32.9925V35.0445H42.676V25.5405H43.132V25.9845H44.08L43.384 26.1525C43.528 26.5965 43.624 27.1845 43.648 27.5805H42.892V28.6845H47.104C47.164 30.0645 47.272 31.2645 47.428 32.2365C47.188 32.5725 46.924 32.8845 46.636 33.1605V29.2125H43.336V34.2285H44.428V33.5325H46.228C45.964 33.7485 45.676 33.9525 45.3759 34.1325C45.628 34.3605 46.036 34.8285 46.192 35.0685C46.768 34.6725 47.2959 34.2045 47.764 33.6645C48.052 34.5405 48.448 35.0205 48.988 35.0325C49.396 35.0325 49.96 34.6125 50.26 32.6685C50.056 32.5365 49.54 32.1645 49.336 31.8765C49.288 32.8245 49.1919 33.3765 49.048 33.3765C48.9039 33.3645 48.772 33.0405 48.664 32.4645C49.228 31.5645 49.672 30.5325 49.996 29.3805L48.856 29.1285Z" fill="#F79314"/>
<path d="M59.92 27.6645C59.632 28.6365 59.236 29.5245 58.768 30.3285C58.564 29.3685 58.396 28.2405 58.288 27.0405H61.996V25.6245H60.748L61.324 25.0125C60.9039 24.6165 60.028 24.0645 59.368 23.7285L58.504 24.5805C58.996 24.8805 59.596 25.2645 60.04 25.6245H58.2039C58.18 25.0365 58.1679 24.4485 58.18 23.8485H56.68C56.68 24.4485 56.7039 25.0365 56.728 25.6245H51.832V29.1285C51.832 30.6885 51.748 32.7765 50.836 34.2165C51.16 34.3845 51.7959 34.9125 52.048 35.1885C53.032 33.7245 53.284 31.3845 53.332 29.6325H54.892C54.856 31.1445 54.8079 31.7205 54.688 31.8885C54.5919 32.0085 54.4959 32.0325 54.3279 32.0325C54.1359 32.0325 53.728 32.0205 53.296 31.9845C53.512 32.3445 53.668 32.8965 53.692 33.3165C54.2439 33.3285 54.7599 33.3285 55.0719 33.2805C55.4319 33.2205 55.672 33.1125 55.9 32.8005C56.176 32.4525 56.248 31.3845 56.284 28.8645C56.284 28.6965 56.296 28.3245 56.296 28.3245H53.332V27.0405H56.812C56.9679 28.8405 57.2319 30.5205 57.6399 31.8765C56.944 32.6565 56.116 33.3165 55.192 33.8205C55.492 34.0965 56.0079 34.6845 56.2239 34.9965C56.9679 34.5405 57.6399 34.0005 58.2519 33.3645C58.7799 34.3485 59.4399 34.9485 60.2799 34.9485C61.396 34.9485 61.8759 34.4205 62.104 32.2005C61.72 32.0445 61.216 31.7325 60.892 31.3965C60.832 32.8965 60.688 33.4965 60.4 33.4965C60.016 33.4965 59.632 32.9925 59.284 32.1285C60.1479 30.9645 60.8559 29.5725 61.3479 28.0125L59.92 27.6645Z" fill="#F79314"/>
<path d="M67.636 30.3525C67.084 30.4965 66.532 30.6405 65.9799 30.7845V26.4765H67.5159V25.1325H63.004V26.4765H64.5639V31.1325C63.9279 31.3005 63.3279 31.4325 62.8359 31.5405L63.184 33.0165C64.504 32.6565 66.232 32.1765 67.816 31.7085L67.636 30.3525ZM70.804 26.3805C70.816 25.6365 70.8279 24.8445 70.8279 24.0405H69.3759C69.3759 24.8565 69.3759 25.6485 69.3639 26.3805H67.684V27.7485H69.304C69.1479 30.4965 68.5359 32.5845 66.208 33.9045C66.556 34.1685 67 34.6845 67.216 35.0565C69.844 33.4845 70.54 30.9525 70.7439 27.7485H72.352C72.2439 31.4925 72.1119 33.0045 71.812 33.3285C71.68 33.4965 71.56 33.5325 71.344 33.5325C71.068 33.5325 70.4799 33.5325 69.8559 33.4845C70.0959 33.8805 70.264 34.4805 70.288 34.8885C70.96 34.9125 71.6079 34.9125 72.0159 34.8525C72.472 34.7805 72.7719 34.6485 73.0719 34.2165C73.5039 33.6405 73.6359 31.8885 73.7799 27.0405C73.792 26.8605 73.792 26.3805 73.792 26.3805H70.804Z" fill="#F79314"/>
<path d="M80.392 26.3685H82.3479C81.9399 26.7525 81.508 27.1125 81.052 27.4605H80.392V26.3685ZM83.008 31.6125H78.88V30.8445H83.008V31.6125ZM78.88 33.5085V32.6925H83.008V33.5085H78.88ZM85.876 28.7205V27.4605H83.092C83.968 26.6565 84.772 25.7685 85.456 24.8205L84.232 24.1965C83.86 24.7245 83.452 25.2285 82.9959 25.7205V25.1325H80.392V23.8365H78.976V25.1325H76.1559V26.3685H78.976V27.4605H75.124V28.7205H79.2039C77.8239 29.5365 76.3239 30.2205 74.7519 30.7125C75.0159 31.0005 75.448 31.5765 75.616 31.8885C76.228 31.6605 76.852 31.3965 77.452 31.1325V35.0565H78.88V34.6965H83.008V35.0085H84.508V29.6805H80.1399C80.632 29.3685 81.088 29.0565 81.556 28.7205H85.876Z" fill="#F79314"/>
<path d="M97.624 29.7765C97.624 27.1605 95.752 25.0965 92.776 25.0965C89.668 25.0965 87.268 27.4605 87.268 30.2325C87.268 32.2605 88.372 33.7245 89.704 33.7245C91.012 33.7245 92.044 32.2365 92.764 29.8125C93.112 28.6845 93.316 27.5805 93.484 26.5605C95.104 26.8365 96.004 28.0725 96.004 29.7285C96.004 31.4805 94.804 32.5845 93.268 32.9445C92.944 33.0165 92.608 33.0885 92.152 33.1365L93.052 34.5645C96.076 34.0965 97.624 32.3085 97.624 29.7765ZM88.804 30.0765C88.804 28.7565 89.8719 27.0045 91.852 26.5965C91.72 27.5925 91.492 28.6125 91.216 29.5005C90.724 31.1205 90.256 31.8765 89.752 31.8765C89.284 31.8765 88.804 31.2885 88.804 30.0765Z" fill="#F79314"/>
<path d="M20 39.2585H21.704C21.88 39.2585 22.026 39.2985 22.142 39.3785C22.262 39.4585 22.34 39.5645 22.376 39.6965L23.576 44.2565C23.616 44.4045 23.656 44.5625 23.696 44.7305C23.736 44.8985 23.766 45.0745 23.786 45.2585C23.826 45.0705 23.87 44.8945 23.918 44.7305C23.966 44.5625 24.012 44.4045 24.056 44.2565L25.472 39.6965C25.508 39.5845 25.584 39.4845 25.7 39.3965C25.82 39.3045 25.964 39.2585 26.132 39.2585H26.732C26.908 39.2585 27.052 39.2985 27.164 39.3785C27.28 39.4545 27.36 39.5605 27.404 39.6965L28.808 44.2565C28.852 44.3965 28.898 44.5465 28.946 44.7065C28.994 44.8625 29.036 45.0305 29.072 45.2105C29.104 45.0345 29.136 44.8665 29.168 44.7065C29.204 44.5465 29.24 44.3965 29.276 44.2565L30.476 39.6965C30.508 39.5805 30.584 39.4785 30.704 39.3905C30.824 39.3025 30.968 39.2585 31.136 39.2585H32.732L30.032 48.0005H28.196L26.552 42.5825C26.524 42.4985 26.494 42.4065 26.462 42.3065C26.434 42.2065 26.406 42.1005 26.378 41.9885C26.35 42.1005 26.32 42.2065 26.288 42.3065C26.26 42.4065 26.232 42.4985 26.204 42.5825L24.536 48.0005H22.7L20 39.2585Z" fill="#F79314"/>
<path d="M35.4152 41.6825C35.8272 41.6825 36.2032 41.7465 36.5432 41.8745C36.8872 42.0025 37.1812 42.1885 37.4252 42.4325C37.6732 42.6765 37.8652 42.9765 38.0012 43.3325C38.1412 43.6845 38.2112 44.0845 38.2112 44.5325C38.2112 44.6725 38.2052 44.7865 38.1932 44.8745C38.1812 44.9625 38.1592 45.0325 38.1272 45.0845C38.0952 45.1365 38.0512 45.1725 37.9952 45.1925C37.9432 45.2125 37.8752 45.2225 37.7912 45.2225H34.2032C34.2632 45.7425 34.4212 46.1205 34.6772 46.3565C34.9332 46.5885 35.2632 46.7045 35.6672 46.7045C35.8832 46.7045 36.0692 46.6785 36.2252 46.6265C36.3812 46.5745 36.5192 46.5165 36.6392 46.4525C36.7632 46.3885 36.8752 46.3305 36.9752 46.2785C37.0792 46.2265 37.1872 46.2005 37.2992 46.2005C37.4472 46.2005 37.5592 46.2545 37.6352 46.3625L38.1752 47.0285C37.9832 47.2485 37.7752 47.4285 37.5512 47.5685C37.3312 47.7045 37.1032 47.8125 36.8672 47.8925C36.6352 47.9685 36.4012 48.0205 36.1652 48.0485C35.9332 48.0805 35.7112 48.0965 35.4992 48.0965C35.0632 48.0965 34.6532 48.0265 34.2692 47.8865C33.8892 47.7425 33.5552 47.5305 33.2672 47.2505C32.9832 46.9705 32.7572 46.6225 32.5892 46.2065C32.4252 45.7905 32.3432 45.3065 32.3432 44.7545C32.3432 44.3385 32.4132 43.9445 32.5532 43.5725C32.6972 43.2005 32.9012 42.8745 33.1652 42.5945C33.4332 42.3145 33.7552 42.0925 34.1312 41.9285C34.5112 41.7645 34.9392 41.6825 35.4152 41.6825ZM35.4512 42.9665C35.0952 42.9665 34.8172 43.0685 34.6172 43.2725C34.4172 43.4725 34.2852 43.7625 34.2212 44.1425H36.5432C36.5432 43.9945 36.5232 43.8505 36.4832 43.7105C36.4472 43.5705 36.3852 43.4465 36.2972 43.3385C36.2132 43.2265 36.1012 43.1365 35.9612 43.0685C35.8212 43.0005 35.6512 42.9665 35.4512 42.9665Z" fill="#F79314"/>
<path d="M39.2785 48.0005V39.0185H41.1385V42.4385C41.3705 42.2105 41.6325 42.0285 41.9245 41.8925C42.2205 41.7525 42.5665 41.6825 42.9625 41.6825C43.2865 41.6825 43.5865 41.7525 43.8625 41.8925C44.1385 42.0325 44.3765 42.2385 44.5765 42.5105C44.7765 42.7785 44.9325 43.1085 45.0445 43.5005C45.1605 43.8925 45.2185 44.3385 45.2185 44.8385C45.2185 45.3065 45.1525 45.7385 45.0205 46.1345C44.8925 46.5305 44.7105 46.8745 44.4745 47.1665C44.2425 47.4585 43.9625 47.6865 43.6345 47.8505C43.3105 48.0145 42.9505 48.0965 42.5545 48.0965C42.3705 48.0965 42.2045 48.0785 42.0565 48.0425C41.9125 48.0065 41.7785 47.9565 41.6545 47.8925C41.5345 47.8245 41.4225 47.7445 41.3185 47.6525C41.2185 47.5605 41.1205 47.4605 41.0245 47.3525L40.9585 47.6645C40.9305 47.7925 40.8785 47.8805 40.8025 47.9285C40.7305 47.9765 40.6345 48.0005 40.5145 48.0005H39.2785ZM42.3145 43.0805C42.1785 43.0805 42.0545 43.0945 41.9425 43.1225C41.8345 43.1465 41.7325 43.1825 41.6365 43.2305C41.5445 43.2785 41.4585 43.3405 41.3785 43.4165C41.2985 43.4885 41.2185 43.5725 41.1385 43.6685V46.3085C41.2785 46.4645 41.4305 46.5745 41.5945 46.6385C41.7585 46.6985 41.9305 46.7285 42.1105 46.7285C42.2825 46.7285 42.4405 46.6945 42.5845 46.6265C42.7285 46.5585 42.8525 46.4505 42.9565 46.3025C43.0645 46.1505 43.1485 45.9545 43.2085 45.7145C43.2685 45.4745 43.2985 45.1825 43.2985 44.8385C43.2985 44.5105 43.2745 44.2345 43.2265 44.0105C43.1785 43.7865 43.1105 43.6065 43.0225 43.4705C42.9385 43.3305 42.8365 43.2305 42.7165 43.1705C42.5965 43.1105 42.4625 43.0805 42.3145 43.0805Z" fill="#F79314"/>
<path d="M48.4955 45.8045C47.8715 46.5725 46.8275 47.3885 45.8555 47.8925C46.2155 48.1205 46.8395 48.6005 47.1395 48.8765C48.0755 48.2765 49.2275 47.2925 49.9715 46.3445L48.4955 45.8045ZM57.1715 45.1805C56.5835 44.3645 55.3355 43.1765 54.3635 42.3725L53.1875 43.1165C53.4635 43.3565 53.7635 43.6325 54.0635 43.9205C52.9595 43.9565 51.8555 43.9805 50.7995 43.9925C52.0955 43.0085 53.4875 41.8205 54.6035 40.6685L53.2355 39.9245C52.5275 40.7405 51.5675 41.6645 50.5835 42.5045C50.3195 42.2765 49.9955 42.0365 49.6595 41.7965C50.2955 41.2205 51.0035 40.4885 51.6035 39.7805L51.5675 39.7565C53.2355 39.6245 54.8555 39.4325 56.1995 39.1445L55.1915 37.9445C53.0555 38.3765 49.5395 38.6285 46.4555 38.6885C46.5995 39.0245 46.7675 39.6005 46.8035 39.9725C47.7035 39.9605 48.6635 39.9365 49.6235 39.8885C49.2995 40.2965 48.9155 40.7045 48.5675 41.0645C48.3515 40.9325 48.1595 40.8125 47.9675 40.7045L46.9835 41.6165C47.7995 42.1205 48.7715 42.8405 49.4315 43.4405C49.1555 43.6565 48.8795 43.8605 48.6155 44.0405C47.6915 44.0525 46.8395 44.0645 46.1075 44.0765L46.2275 45.5045C47.4755 45.4685 49.0475 45.4325 50.7275 45.3725V49.0445H52.2515V45.3245C53.2475 45.2885 54.2555 45.2405 55.2635 45.2045C55.5155 45.5045 55.7435 45.7925 55.8995 46.0445L57.1715 45.1805ZM52.9475 46.5485C53.9075 47.2205 55.1435 48.2045 55.6955 48.8525L56.9795 47.9405C56.3555 47.2805 55.0835 46.3445 54.1355 45.7325L52.9475 46.5485Z" fill="#F79314"/>
<path d="M61.7675 39.3125V39.9245H59.8835V39.3125H61.7675ZM59.8835 41.5085V40.8605H61.7675V41.5085H59.8835ZM63.1115 42.5405V38.2925H58.4915V49.0445H59.8835V42.5405H63.1115ZM62.9195 45.1805V44.2805H64.0355V45.1805H62.9195ZM66.6035 46.3445V45.1805H65.2835V44.2805H66.4115V43.1525H60.6155V44.2805H61.7075V45.1805H60.4475V46.3445H61.6595C61.5395 46.9565 61.2035 47.7365 60.4355 48.2165C60.7115 48.4085 61.1435 48.7805 61.3475 49.0325C62.3675 48.3365 62.7635 47.1725 62.8835 46.3445H64.0355V48.8165H65.2835V46.3445H66.6035ZM65.2595 41.5325V40.8605H67.2035V41.5325H65.2595ZM67.2035 39.3125V39.9245H65.2595V39.3125H67.2035ZM68.6075 38.2925H63.9035V42.5645H67.2035V47.3645C67.2035 47.5325 67.1435 47.6045 66.9515 47.6045C66.7715 47.6165 66.1835 47.6165 65.6435 47.5925C65.8355 47.9645 66.0275 48.6125 66.0755 49.0085C66.9875 49.0085 67.6115 48.9725 68.0435 48.7325C68.4755 48.5045 68.6075 48.1085 68.6075 47.3765V38.2925Z" fill="#F79314"/>
<path d="M76.2035 44.5925H74.7275V43.2365H76.2035V44.5925ZM78.7835 43.2365V42.8525C79.2395 43.2005 79.7315 43.5005 80.2595 43.7525C80.4755 43.3685 80.9075 42.8045 81.2435 42.5285C80.5595 42.2525 79.9355 41.8805 79.3715 41.4245C79.8995 41.0525 80.4755 40.5845 80.9675 40.1285L79.9235 39.3845C79.5875 39.7925 79.0595 40.2845 78.5675 40.6805C78.3875 40.4765 78.2075 40.2725 78.0395 40.0565C78.5315 39.6965 79.0835 39.2285 79.5755 38.7845L78.4955 38.0165C78.2195 38.3525 77.8235 38.7725 77.4275 39.1325C77.1875 38.7245 76.9955 38.2925 76.8275 37.8485L75.5435 38.2085C76.0715 39.6245 76.7915 40.8725 77.7275 41.8805H73.3835C74.2235 41.0165 74.9075 39.9485 75.3275 38.6885L74.3795 38.2445L74.1275 38.2925H70.9955V39.5165H73.4435C73.2275 39.9005 72.9755 40.2605 72.6875 40.5965C72.3515 40.3085 71.8955 39.9605 71.5355 39.7085L70.6355 40.4525C71.0315 40.7525 71.5115 41.1605 71.8235 41.4725C71.2115 42.0005 70.5275 42.4205 69.8315 42.7085C70.1075 42.9725 70.5035 43.4645 70.6955 43.7885C71.2475 43.5245 71.7875 43.2125 72.2915 42.8405V43.2365H73.2995V44.5925H70.7315V45.9005H73.1075C72.8075 46.7045 72.0875 47.4485 70.4315 47.9525C70.7315 48.2165 71.1635 48.7685 71.3435 49.0925C73.5635 48.3485 74.3555 47.1605 74.6195 45.9005H76.2035V47.2085C76.2035 48.5405 76.5275 48.9605 77.8235 48.9605H79.1315C80.1875 48.9605 80.5595 48.4805 80.7035 46.8965C80.2955 46.8125 79.7195 46.5725 79.4195 46.3325C79.3715 47.4605 79.3115 47.7005 78.9995 47.7005H78.0755C77.7395 47.7005 77.6915 47.6285 77.6915 47.1965V45.9005H80.2475V44.5925H77.6915V43.2365H78.7835Z" fill="#F79314"/>
<path d="M86.6675 37.7885C85.7675 39.3125 83.8355 41.2205 81.7595 42.2885C82.0715 42.5885 82.4795 43.1165 82.6595 43.4405C84.6395 42.3245 86.4875 40.6565 87.4595 39.1925C88.4915 40.6685 90.4955 42.3965 92.3555 43.4285C92.6315 42.9845 92.9555 42.5165 93.3155 42.1445C91.3955 41.3165 89.4275 39.6845 88.1315 37.7885H86.6675ZM88.3355 45.0245H91.5515V43.7645H88.3355V41.1965H86.8355V47.4245H85.1315V43.2605H83.7275V47.4245H82.4195V48.7205H92.6315V47.4245H88.3355V45.0245Z" fill="#F79314"/>
<path d="M100.995 40.9565C100.863 41.2805 100.719 41.6285 100.575 41.9165H98.3315L98.5355 41.8805C98.4515 41.6285 98.2955 41.2685 98.1275 40.9565H100.995ZM104.871 46.3085V45.1325H100.203V44.6045H103.803V43.5725H100.203V43.0325H104.367V41.9165H102.015C102.195 41.6285 102.387 41.3045 102.579 40.9565H104.835V39.7925H103.275C103.551 39.3725 103.875 38.8325 104.211 38.2805L102.711 37.9205C102.543 38.4485 102.243 39.1685 101.955 39.6605L102.387 39.7925H101.319V37.8365H99.9755V39.7925H99.0875V37.8365H97.7555V39.7925H96.6635L97.2515 39.5765C97.0835 39.1085 96.6875 38.4005 96.3395 37.8845L95.1155 38.3045C95.3795 38.7605 95.6915 39.3365 95.8595 39.7925H94.2515V40.9565H96.7595L96.6155 40.9805C96.7715 41.2565 96.9275 41.6165 97.0235 41.9165H94.7435V43.0325H98.7995V43.5725H95.3435V44.6045H98.7995V45.1325H94.2155V46.3085H97.6595C96.6275 46.9325 95.2115 47.4365 93.8675 47.7125C94.1675 48.0005 94.5755 48.5525 94.7795 48.9005C96.2075 48.5285 97.6835 47.8325 98.7995 46.9565V49.0445H100.203V46.8845C101.307 47.8205 102.759 48.5405 104.235 48.9125C104.451 48.5285 104.871 47.9285 105.195 47.6165C103.803 47.4005 102.411 46.9325 101.391 46.3085H104.871Z" fill="#F79314"/>
<path d="M54.028 55.2205V59.5525C53.368 58.7245 52.084 57.5005 51.0639 56.5765C51.1599 56.1085 51.208 55.6645 51.232 55.2205H54.028ZM47.02 55.2205H49.756C49.696 56.6965 49.288 58.4725 47.02 59.6485V55.2205ZM55.444 53.8285H51.2439V51.8365H49.768V53.8285H45.592V63.0685H47.02V59.6845C47.368 59.9485 47.812 60.4525 48.016 60.7405C49.324 59.9725 50.128 58.9885 50.596 57.9805C51.472 58.8565 52.372 59.8285 52.852 60.4885L54.028 59.5765V61.3765C54.028 61.5925 53.956 61.6525 53.728 61.6645C53.5 61.6645 52.6959 61.6765 51.9879 61.6405C52.1919 62.0125 52.408 62.6485 52.456 63.0565C53.524 63.0565 54.292 63.0325 54.784 62.8045C55.288 62.5765 55.444 62.1805 55.444 61.4125V53.8285Z" fill="#F79314"/>
<path d="M58.7799 54.4045H66.16V56.0485H67.636V53.0485H63.2439V51.8485H61.7319V53.0485H57.3759V56.0485H58.7799V54.4045ZM63.232 59.6365H66.532V58.2925H63.232V56.7925H65.7999V55.4365H59.2V56.7925H61.756V61.0285C61.048 60.6805 60.484 60.1045 60.124 59.1445C60.232 58.6645 60.316 58.1605 60.388 57.6205L58.9 57.4765C58.684 59.5285 58.096 61.1845 56.7999 62.1445C57.1359 62.3605 57.736 62.8645 57.976 63.1165C58.66 62.5285 59.188 61.7605 59.5719 60.8485C60.6759 62.5525 62.32 62.9125 64.528 62.9125H67.528C67.6 62.4925 67.828 61.8085 68.032 61.4605C67.228 61.4965 65.2479 61.4965 64.5999 61.4965C64.1199 61.4965 63.664 61.4725 63.232 61.4245V59.6365Z" fill="#F79314"/>
<path d="M72.22 57.7405L72.004 56.8525C70.9 57.2845 69.748 57.7285 68.992 57.9685L69.664 59.1205C70.312 58.8325 71.104 58.4605 71.86 58.0885L72.004 58.9165C73.156 58.8325 74.6199 58.7245 76.0719 58.5925C76.18 58.8085 76.264 59.0125 76.324 59.1925L77.4039 58.7125C77.32 58.4605 77.1759 58.1605 76.9959 57.8485C77.728 58.2685 78.4959 58.7965 78.9039 59.1565L79.936 58.3045C79.372 57.8365 78.256 57.1765 77.428 56.7685L76.6959 57.3565C76.5039 57.0685 76.288 56.7805 76.096 56.5285L75.088 56.9485C75.232 57.1525 75.388 57.3685 75.52 57.5965L74.284 57.6565C75.052 56.9365 75.8559 56.0965 76.5159 55.3165L75.4 54.8005C75.1 55.2325 74.716 55.7125 74.3079 56.2045C74.1279 56.0605 73.924 55.9165 73.708 55.7605C74.056 55.3525 74.452 54.8605 74.824 54.3805L74.56 54.2845H79.528V53.0125H75.1959V51.8485H73.7319V53.0125H69.5079V54.2845H73.4319C73.264 54.5845 73.06 54.9205 72.868 55.2085L72.58 55.0405L72.028 55.7005C71.584 55.3285 70.852 54.8605 70.2999 54.5605L69.352 55.3405C69.988 55.7005 70.7799 56.2765 71.152 56.6605L72.028 55.9165C72.532 56.2525 73.108 56.6725 73.54 57.0445C73.312 57.2725 73.084 57.5005 72.8559 57.7165L72.22 57.7405ZM77.764 56.5285C78.304 56.1565 79 55.6165 79.6119 55.0525L78.34 54.4405C77.9319 54.9325 77.26 55.5565 76.72 55.9645L77.764 56.5285ZM75.1959 58.8205H73.7319V59.5885H69.124V60.9085H73.7319V63.0445H75.1959V60.9085H79.9V59.5885H75.1959V58.8205Z" fill="#F79314"/>
<path d="M20.9364 90.9683H25.9764V77.7383C25.9764 77.0903 25.9944 76.4123 26.0304 75.7043L23.0604 78.1703C22.8684 78.3263 22.6764 78.4403 22.4844 78.5123C22.2924 78.5723 22.1064 78.6023 21.9264 78.6023C21.6144 78.6023 21.3324 78.5363 21.0804 78.4043C20.8404 78.2603 20.6604 78.1103 20.5404 77.9543L18.7764 75.6143L26.9484 68.7563H31.5564V90.9683H35.8764V95.0003H20.9364V90.9683Z" fill="#F79314"/>
<path d="M57.4432 81.8783C57.4432 84.1703 57.1972 86.1563 56.7052 87.8363C56.2132 89.5163 55.5292 90.9083 54.6532 92.0123C53.7892 93.1163 52.7572 93.9383 51.5572 94.4783C50.3692 95.0183 49.0792 95.2883 47.6872 95.2883C46.2952 95.2883 45.0052 95.0183 43.8172 94.4783C42.6412 93.9383 41.6212 93.1163 40.7572 92.0123C39.8932 90.9083 39.2152 89.5163 38.7232 87.8363C38.2432 86.1563 38.0032 84.1703 38.0032 81.8783C38.0032 79.5863 38.2432 77.6003 38.7232 75.9203C39.2152 74.2403 39.8932 72.8483 40.7572 71.7443C41.6212 70.6403 42.6412 69.8243 43.8172 69.2963C45.0052 68.7563 46.2952 68.4863 47.6872 68.4863C49.0792 68.4863 50.3692 68.7563 51.5572 69.2963C52.7572 69.8243 53.7892 70.6403 54.6532 71.7443C55.5292 72.8483 56.2132 74.2403 56.7052 75.9203C57.1972 77.6003 57.4432 79.5863 57.4432 81.8783ZM51.6832 81.8783C51.6832 80.0663 51.5692 78.5843 51.3412 77.4323C51.1132 76.2683 50.8072 75.3563 50.4232 74.6963C50.0512 74.0363 49.6252 73.5863 49.1452 73.3463C48.6652 73.0943 48.1792 72.9683 47.6872 72.9683C47.1952 72.9683 46.7092 73.0943 46.2292 73.3463C45.7612 73.5863 45.3412 74.0363 44.9692 74.6963C44.6092 75.3563 44.3152 76.2683 44.0872 77.4323C43.8712 78.5843 43.7632 80.0663 43.7632 81.8783C43.7632 83.7023 43.8712 85.1903 44.0872 86.3423C44.3152 87.4943 44.6092 88.4063 44.9692 89.0783C45.3412 89.7383 45.7612 90.1943 46.2292 90.4463C46.7092 90.6863 47.1952 90.8063 47.6872 90.8063C48.1792 90.8063 48.6652 90.6863 49.1452 90.4463C49.6252 90.1943 50.0512 89.7383 50.4232 89.0783C50.8072 88.4063 51.1132 87.4943 51.3412 86.3423C51.5692 85.1903 51.6832 83.7023 51.6832 81.8783Z" fill="#F79314"/>
<path d="M78.326 81.8783C78.326 84.1703 78.08 86.1563 77.588 87.8363C77.096 89.5163 76.412 90.9083 75.536 92.0123C74.672 93.1163 73.64 93.9383 72.44 94.4783C71.252 95.0183 69.962 95.2883 68.57 95.2883C67.178 95.2883 65.888 95.0183 64.7 94.4783C63.524 93.9383 62.504 93.1163 61.64 92.0123C60.776 90.9083 60.098 89.5163 59.606 87.8363C59.126 86.1563 58.886 84.1703 58.886 81.8783C58.886 79.5863 59.126 77.6003 59.606 75.9203C60.098 74.2403 60.776 72.8483 61.64 71.7443C62.504 70.6403 63.524 69.8243 64.7 69.2963C65.888 68.7563 67.178 68.4863 68.57 68.4863C69.962 68.4863 71.252 68.7563 72.44 69.2963C73.64 69.8243 74.672 70.6403 75.536 71.7443C76.412 72.8483 77.096 74.2403 77.588 75.9203C78.08 77.6003 78.326 79.5863 78.326 81.8783ZM72.566 81.8783C72.566 80.0663 72.452 78.5843 72.224 77.4323C71.996 76.2683 71.69 75.3563 71.306 74.6963C70.934 74.0363 70.508 73.5863 70.028 73.3463C69.548 73.0943 69.062 72.9683 68.57 72.9683C68.078 72.9683 67.592 73.0943 67.112 73.3463C66.644 73.5863 66.224 74.0363 65.852 74.6963C65.492 75.3563 65.198 76.2683 64.97 77.4323C64.754 78.5843 64.646 80.0663 64.646 81.8783C64.646 83.7023 64.754 85.1903 64.97 86.3423C65.198 87.4943 65.492 88.4063 65.852 89.0783C66.224 89.7383 66.644 90.1943 67.112 90.4463C67.592 90.6863 68.078 90.8063 68.57 90.8063C69.062 90.8063 69.548 90.6863 70.028 90.4463C70.508 90.1943 70.934 89.7383 71.306 89.0783C71.69 88.4063 71.996 87.4943 72.224 86.3423C72.452 85.1903 72.566 83.7023 72.566 81.8783Z" fill="#F79314"/>
<path d="M90.2688 78.4403C90.2688 79.2403 90.1238 79.9703 89.8338 80.6303C89.5438 81.2903 89.1588 81.8603 88.6788 82.3403C88.1988 82.8103 87.6388 83.1753 86.9988 83.4353C86.3688 83.6953 85.7088 83.8253 85.0188 83.8253C84.2588 83.8253 83.5588 83.6953 82.9188 83.4353C82.2888 83.1753 81.7388 82.8103 81.2688 82.3403C80.8088 81.8603 80.4488 81.2903 80.1888 80.6303C79.9288 79.9703 79.7988 79.2403 79.7988 78.4403C79.7988 77.6103 79.9288 76.8603 80.1888 76.1903C80.4488 75.5103 80.8088 74.9303 81.2688 74.4503C81.7388 73.9703 82.2888 73.6003 82.9188 73.3403C83.5588 73.0703 84.2588 72.9353 85.0188 72.9353C85.7788 72.9353 86.4788 73.0703 87.1188 73.3403C87.7688 73.6003 88.3238 73.9703 88.7838 74.4503C89.2538 74.9303 89.6188 75.5103 89.8788 76.1903C90.1388 76.8603 90.2688 77.6103 90.2688 78.4403ZM86.6988 78.4403C86.6988 77.9303 86.6538 77.5103 86.5638 77.1803C86.4838 76.8403 86.3688 76.5703 86.2188 76.3703C86.0688 76.1703 85.8888 76.0303 85.6788 75.9503C85.4788 75.8703 85.2588 75.8303 85.0188 75.8303C84.7788 75.8303 84.5588 75.8703 84.3588 75.9503C84.1588 76.0303 83.9888 76.1703 83.8488 76.3703C83.7088 76.5703 83.5988 76.8403 83.5188 77.1803C83.4388 77.5103 83.3988 77.9303 83.3988 78.4403C83.3988 78.9203 83.4388 79.3203 83.5188 79.6403C83.5988 79.9603 83.7088 80.2153 83.8488 80.4053C83.9888 80.5953 84.1588 80.7303 84.3588 80.8103C84.5588 80.8903 84.7788 80.9303 85.0188 80.9303C85.2588 80.9303 85.4788 80.8903 85.6788 80.8103C85.8888 80.7303 86.0688 80.5953 86.2188 80.4053C86.3688 80.2153 86.4838 79.9603 86.5638 79.6403C86.6538 79.3203 86.6988 78.9203 86.6988 78.4403ZM97.1388 73.8353C97.2888 73.6653 97.4738 73.5103 97.6938 73.3703C97.9138 73.2203 98.2188 73.1453 98.6088 73.1453H101.999L85.5288 94.3403C85.3788 94.5303 85.1888 94.6903 84.9588 94.8203C84.7388 94.9403 84.4688 95.0003 84.1488 95.0003H80.6688L97.1388 73.8353ZM102.839 89.8703C102.839 90.6703 102.694 91.4053 102.404 92.0753C102.114 92.7353 101.729 93.3053 101.249 93.7853C100.769 94.2553 100.209 94.6203 99.5688 94.8803C98.9388 95.1403 98.2788 95.2703 97.5888 95.2703C96.8288 95.2703 96.1288 95.1403 95.4888 94.8803C94.8588 94.6203 94.3088 94.2553 93.8388 93.7853C93.3788 93.3053 93.0188 92.7353 92.7588 92.0753C92.4988 91.4053 92.3688 90.6703 92.3688 89.8703C92.3688 89.0403 92.4988 88.2903 92.7588 87.6203C93.0188 86.9403 93.3788 86.3603 93.8388 85.8803C94.3088 85.4003 94.8588 85.0303 95.4888 84.7703C96.1288 84.5003 96.8288 84.3653 97.5888 84.3653C98.3488 84.3653 99.0488 84.5003 99.6888 84.7703C100.339 85.0303 100.894 85.4003 101.354 85.8803C101.824 86.3603 102.189 86.9403 102.449 87.6203C102.709 88.2903 102.839 89.0403 102.839 89.8703ZM99.2688 89.8703C99.2688 89.3703 99.2238 88.9553 99.1338 88.6253C99.0538 88.2853 98.9388 88.0153 98.7888 87.8153C98.6388 87.6153 98.4588 87.4753 98.2488 87.3953C98.0488 87.3153 97.8288 87.2753 97.5888 87.2753C97.3488 87.2753 97.1288 87.3153 96.9288 87.3953C96.7288 87.4753 96.5588 87.6153 96.4188 87.8153C96.2788 88.0153 96.1688 88.2853 96.0888 88.6253C96.0088 88.9553 95.9688 89.3703 95.9688 89.8703C95.9688 90.3503 96.0088 90.7503 96.0888 91.0703C96.1688 91.3903 96.2788 91.6453 96.4188 91.8353C96.5588 92.0253 96.7288 92.1603 96.9288 92.2403C97.1288 92.3203 97.3488 92.3603 97.5888 92.3603C97.8288 92.3603 98.0488 92.3203 98.2488 92.2403C98.4588 92.1603 98.6388 92.0253 98.7888 91.8353C98.9388 91.6453 99.0538 91.3903 99.1338 91.0703C99.2238 90.7503 99.2688 90.3503 99.2688 89.8703Z" fill="#F79314"/>
<path d="M106.859 73.1512C106.709 73.1512 106.6 73.1086 106.531 73.0232C106.467 72.9379 106.435 72.8206 106.435 72.6712C106.435 72.5272 106.467 72.4126 106.531 72.3272C106.6 72.2419 106.709 72.1992 106.859 72.1992C107.013 72.1992 107.125 72.2419 107.195 72.3272C107.264 72.4126 107.299 72.5272 107.299 72.6712C107.299 72.8206 107.264 72.9379 107.195 73.0232C107.125 73.1086 107.013 73.1512 106.859 73.1512ZM104.435 77.9992L104.067 77.6312L106.515 75.1512L104.059 72.6792L104.427 72.3032L106.891 74.7752L109.363 72.3112L109.731 72.6792L107.267 75.1512L109.715 77.6392L109.347 78.0072L106.891 75.5272L104.435 77.9992ZM104.379 75.6392C104.251 75.6392 104.147 75.6046 104.067 75.5352C103.987 75.4606 103.947 75.3406 103.947 75.1752C103.947 75.0099 103.987 74.8899 104.067 74.8152C104.147 74.7406 104.251 74.7032 104.379 74.7032C104.512 74.7032 104.619 74.7406 104.699 74.8152C104.779 74.8899 104.819 75.0099 104.819 75.1752C104.819 75.3406 104.779 75.4606 104.699 75.5352C104.619 75.6046 104.512 75.6392 104.379 75.6392ZM109.403 75.6392C109.275 75.6392 109.171 75.6046 109.091 75.5352C109.011 75.4606 108.971 75.3406 108.971 75.1752C108.971 75.0099 109.011 74.8899 109.091 74.8152C109.171 74.7406 109.275 74.7032 109.403 74.7032C109.536 74.7032 109.643 74.7406 109.723 74.8152C109.803 74.8899 109.843 75.0099 109.843 75.1752C109.843 75.3406 109.803 75.4606 109.723 75.5352C109.643 75.6046 109.536 75.6392 109.403 75.6392ZM106.859 78.1192C106.709 78.1192 106.6 78.0766 106.531 77.9912C106.467 77.9059 106.435 77.7886 106.435 77.6392C106.435 77.4952 106.467 77.3806 106.531 77.2952C106.6 77.2099 106.709 77.1672 106.859 77.1672C107.013 77.1672 107.125 77.2099 107.195 77.2952C107.264 77.3806 107.299 77.4952 107.299 77.6392C107.299 77.7886 107.264 77.9059 107.195 77.9912C107.125 78.0766 107.013 78.1192 106.859 78.1192Z" fill="#A2A2A4"/>
<path d="M112.646 72.2032C112.889 72.2032 113.115 72.2392 113.326 72.3112C113.537 72.3832 113.718 72.4886 113.87 72.6272C114.025 72.7632 114.146 72.9299 114.234 73.1272C114.322 73.3246 114.366 73.5486 114.366 73.7992C114.366 74.0126 114.334 74.2099 114.27 74.3912C114.206 74.5726 114.119 74.7472 114.01 74.9152C113.901 75.0806 113.774 75.2419 113.63 75.3992C113.489 75.5539 113.338 75.7126 113.178 75.8752L111.67 77.4192C111.777 77.3899 111.885 77.3672 111.994 77.3512C112.103 77.3326 112.209 77.3232 112.31 77.3232H114.23C114.307 77.3232 114.369 77.3459 114.414 77.3912C114.459 77.4366 114.482 77.4952 114.482 77.5672V77.9992H110.658V77.7552C110.658 77.7046 110.667 77.6526 110.686 77.5992C110.707 77.5459 110.741 77.4966 110.786 77.4512L112.622 75.6072C112.774 75.4526 112.913 75.3046 113.038 75.1632C113.163 75.0192 113.27 74.8752 113.358 74.7312C113.449 74.5872 113.518 74.4419 113.566 74.2952C113.614 74.1459 113.638 73.9872 113.638 73.8192C113.638 73.6512 113.611 73.5046 113.558 73.3792C113.505 73.2512 113.431 73.1459 113.338 73.0632C113.245 72.9806 113.135 72.9192 113.01 72.8792C112.885 72.8366 112.75 72.8152 112.606 72.8152C112.462 72.8152 112.329 72.8366 112.206 72.8792C112.083 72.9219 111.974 72.9819 111.878 73.0592C111.785 73.1339 111.705 73.2232 111.638 73.3272C111.574 73.4312 111.529 73.5459 111.502 73.6712C111.481 73.7486 111.449 73.8046 111.406 73.8392C111.363 73.8739 111.307 73.8912 111.238 73.8912C111.225 73.8912 111.21 73.8912 111.194 73.8912C111.181 73.8886 111.165 73.8859 111.146 73.8832L110.774 73.8192C110.811 73.5579 110.883 73.3272 110.99 73.1272C111.097 72.9246 111.231 72.7552 111.394 72.6192C111.559 72.4832 111.747 72.3806 111.958 72.3112C112.171 72.2392 112.401 72.2032 112.646 72.2032Z" fill="#A2A2A4"/>
<defs>
<linearGradient id="paint0_linear" x1="100" y1="11" x2="1.49012e-06" y2="61.7885" gradientUnits="userSpaceOnUse">
<stop stop-color="#F8BD35"/>
<stop offset="1" stop-color="#F77F14"/>
</linearGradient>
</defs>
</svg>
