<svg width="178" height="178" viewBox="0 0 178 178" fill="none" xmlns="http://www.w3.org/2000/svg">
<path d="M87.2885 174.577C135.497 174.577 174.577 135.497 174.577 87.2885C174.577 39.0804 135.497 0 87.2885 0C39.0804 0 0 39.0804 0 87.2885C0 135.497 39.0804 174.577 87.2885 174.577Z" fill="white"/>
<path fill-rule="evenodd" clip-rule="evenodd" d="M87.2885 169.577C132.735 169.577 169.577 132.735 169.577 87.2885C169.577 41.8418 132.735 5 87.2885 5C41.8418 5 5 41.8418 5 87.2885C5 132.735 41.8418 169.577 87.2885 169.577ZM174.577 87.2885C174.577 135.497 135.497 174.577 87.2885 174.577C39.0804 174.577 0 135.497 0 87.2885C0 39.0804 39.0804 0 87.2885 0C135.497 0 174.577 39.0804 174.577 87.2885Z" fill="url(#paint0_linear)"/>
<path d="M66.2408 19.8873H68.7968C69.0608 19.8873 69.2798 19.9473 69.4538 20.0673C69.6338 20.1873 69.7508 20.3463 69.8048 20.5443L71.6048 27.3843C71.6648 27.6063 71.7248 27.8433 71.7848 28.0953C71.8448 28.3473 71.8898 28.6113 71.9198 28.8873C71.9798 28.6053 72.0458 28.3413 72.1178 28.0953C72.1898 27.8433 72.2588 27.6063 72.3248 27.3843L74.4488 20.5443C74.5028 20.3763 74.6168 20.2263 74.7908 20.0943C74.9708 19.9563 75.1868 19.8873 75.4388 19.8873H76.3388C76.6028 19.8873 76.8188 19.9473 76.9868 20.0673C77.1608 20.1813 77.2808 20.3403 77.3468 20.5443L79.4528 27.3843C79.5188 27.5943 79.5878 27.8193 79.6598 28.0593C79.7318 28.2933 79.7948 28.5453 79.8488 28.8153C79.8968 28.5513 79.9448 28.2993 79.9928 28.0593C80.0468 27.8193 80.1008 27.5943 80.1548 27.3843L81.9548 20.5443C82.0028 20.3703 82.1168 20.2173 82.2968 20.0853C82.4768 19.9533 82.6928 19.8873 82.9448 19.8873H85.3388L81.2888 33.0003H78.5348L76.0688 24.8733C76.0268 24.7473 75.9818 24.6093 75.9338 24.4593C75.8918 24.3093 75.8498 24.1503 75.8078 23.9823C75.7658 24.1503 75.7208 24.3093 75.6728 24.4593C75.6308 24.6093 75.5888 24.7473 75.5468 24.8733L73.0448 33.0003H70.2908L66.2408 19.8873Z" fill="#F79314"/>
<path d="M89.8729 23.5233C90.4909 23.5233 91.0549 23.6193 91.5649 23.8113C92.0809 24.0033 92.5219 24.2823 92.8879 24.6483C93.2599 25.0143 93.5479 25.4643 93.7519 25.9983C93.9619 26.5263 94.0669 27.1263 94.0669 27.7983C94.0669 28.0083 94.0579 28.1793 94.0399 28.3113C94.0219 28.4433 93.9889 28.5483 93.9409 28.6263C93.8929 28.7043 93.8269 28.7583 93.7429 28.7883C93.6649 28.8183 93.5629 28.8333 93.4369 28.8333H88.0549C88.1449 29.6133 88.3819 30.1803 88.7659 30.5343C89.1499 30.8823 89.6449 31.0563 90.2509 31.0563C90.5749 31.0563 90.8539 31.0173 91.0879 30.9393C91.3219 30.8613 91.5289 30.7743 91.7089 30.6783C91.8949 30.5823 92.0629 30.4953 92.2129 30.4173C92.3689 30.3393 92.5309 30.3003 92.6989 30.3003C92.9209 30.3003 93.0889 30.3813 93.2029 30.5433L94.0129 31.5423C93.7249 31.8723 93.4129 32.1423 93.0769 32.3523C92.7469 32.5563 92.4049 32.7183 92.0509 32.8383C91.7029 32.9523 91.3519 33.0303 90.9979 33.0723C90.6499 33.1203 90.3169 33.1443 89.9989 33.1443C89.3449 33.1443 88.7299 33.0393 88.1539 32.8293C87.5839 32.6133 87.0829 32.2953 86.6509 31.8753C86.2249 31.4553 85.8859 30.9333 85.6339 30.3093C85.3879 29.6853 85.2649 28.9593 85.2649 28.1313C85.2649 27.5073 85.3699 26.9163 85.5799 26.3583C85.7959 25.8003 86.1019 25.3113 86.4979 24.8913C86.8999 24.4713 87.3829 24.1383 87.9469 23.8923C88.5169 23.6463 89.1589 23.5233 89.8729 23.5233ZM89.9269 25.4493C89.3929 25.4493 88.9759 25.6023 88.6759 25.9083C88.3759 26.2083 88.1779 26.6433 88.0819 27.2133H91.5649C91.5649 26.9913 91.5349 26.7753 91.4749 26.5653C91.4209 26.3553 91.3279 26.1693 91.1959 26.0073C91.0699 25.8393 90.9019 25.7043 90.6919 25.6023C90.4819 25.5003 90.2269 25.4493 89.9269 25.4493Z" fill="#F79314"/>
<path d="M96.488 33.0003V19.5273H99.278V24.6573C99.626 24.3153 100.019 24.0423 100.457 23.8383C100.901 23.6283 101.42 23.5233 102.014 23.5233C102.5 23.5233 102.95 23.6283 103.364 23.8383C103.778 24.0483 104.135 24.3573 104.435 24.7653C104.735 25.1673 104.969 25.6623 105.137 26.2503C105.311 26.8383 105.398 27.5073 105.398 28.2573C105.398 28.9593 105.299 29.6073 105.101 30.2013C104.909 30.7953 104.636 31.3113 104.282 31.7493C103.934 32.1873 103.514 32.5293 103.022 32.7753C102.536 33.0213 101.996 33.1443 101.402 33.1443C101.126 33.1443 100.877 33.1173 100.655 33.0633C100.439 33.0093 100.238 32.9343 100.052 32.8383C99.872 32.7363 99.704 32.6163 99.548 32.4783C99.398 32.3403 99.251 32.1903 99.107 32.0283L99.008 32.4963C98.966 32.6883 98.888 32.8203 98.774 32.8923C98.666 32.9643 98.522 33.0003 98.342 33.0003H96.488ZM101.042 25.6203C100.838 25.6203 100.652 25.6413 100.484 25.6833C100.322 25.7193 100.169 25.7733 100.025 25.8453C99.887 25.9173 99.758 26.0103 99.638 26.1243C99.518 26.2323 99.398 26.3583 99.278 26.5023V30.4623C99.488 30.6963 99.716 30.8613 99.962 30.9573C100.208 31.0473 100.466 31.0923 100.736 31.0923C100.994 31.0923 101.231 31.0413 101.447 30.9393C101.663 30.8373 101.849 30.6753 102.005 30.4533C102.167 30.2253 102.293 29.9313 102.383 29.5713C102.473 29.2113 102.518 28.7733 102.518 28.2573C102.518 27.7653 102.482 27.3513 102.41 27.0153C102.338 26.6793 102.236 26.4093 102.104 26.2053C101.978 25.9953 101.825 25.8453 101.645 25.7553C101.465 25.6653 101.264 25.6203 101.042 25.6203Z" fill="#F79314"/>
<path d="M45.7221 42.4363V44.9023C46.1721 44.8663 46.9461 44.8303 47.4321 44.8303H50.9061V52.1743H46.3341C45.7761 52.1743 45.1281 52.1203 44.5701 52.0303V54.6403C45.1641 54.5683 45.7941 54.5503 46.3341 54.5503H58.1961C58.6101 54.5503 59.3661 54.5683 59.8881 54.6403V52.0303C59.4201 52.1023 58.8441 52.1743 58.1961 52.1743H53.4261V44.8303H57.2241C57.7461 44.8303 58.3761 44.8663 58.9161 44.9023V42.4363C58.3941 42.4903 57.7641 42.5443 57.2241 42.5443H47.4321C46.9281 42.5443 46.1901 42.4903 45.7221 42.4363Z" fill="#F79314"/>
<path d="M65.1981 41.3203L63.5061 43.1203C64.8201 44.0383 67.0701 46.0003 68.0061 47.0083L69.8421 45.1363C68.7981 44.0383 66.4581 42.1663 65.1981 41.3203ZM62.9481 53.3083L64.4601 55.6843C66.9981 55.2523 69.3201 54.2443 71.1381 53.1463C74.0361 51.4003 76.4301 48.9163 77.7981 46.4863L76.3941 43.9483C75.2601 46.3783 72.9201 49.1323 69.8421 50.9503C68.0961 51.9943 65.7561 52.9123 62.9481 53.3083Z" fill="#F79314"/>
<path d="M91.6401 41.1763L90.1281 41.8063C90.7761 42.7243 91.1901 43.4983 91.7121 44.6323L93.2781 43.9663C92.8641 43.1383 92.1441 41.9323 91.6401 41.1763ZM94.1061 40.3123L92.5761 40.9423C93.2421 41.8423 93.6921 42.5443 94.2681 43.6783L95.7981 42.9943C95.3661 42.2023 94.6641 41.0323 94.1061 40.3123ZM83.8101 40.8343L82.5141 42.8143C83.7021 43.4803 85.5741 44.6863 86.5821 45.3883L87.9141 43.4083C86.9781 42.7423 84.9981 41.4823 83.8101 40.8343ZM80.4801 53.6143L81.8301 55.9723C83.4141 55.6843 86.0061 54.7843 87.8421 53.7583C90.7761 52.0483 93.3321 49.7803 94.9881 47.2783L93.6021 44.8303C92.1801 47.4043 89.6601 49.8703 86.6001 51.5803C84.6561 52.6603 82.4961 53.2723 80.4801 53.6143ZM81.0381 44.9383L79.7421 46.9183C80.9481 47.5663 82.8201 48.7723 83.8461 49.4923L85.1601 47.4763C84.2421 46.8283 82.2621 45.5863 81.0381 44.9383Z" fill="#F79314"/>
<path d="M99.2001 42.7783V45.3883C99.8121 45.3523 100.64 45.3163 101.324 45.3163H108.758C109.388 45.3163 110.234 45.3703 110.756 45.3883V42.7783C110.252 42.8323 109.478 42.8863 108.758 42.8863H101.306C100.694 42.8863 99.8481 42.8503 99.2001 42.7783ZM97.6881 51.5803V54.3343C98.3541 54.2803 99.2361 54.2263 99.9381 54.2263H110.27C110.81 54.2263 111.62 54.2623 112.25 54.3343V51.5803C111.638 51.6523 110.882 51.6883 110.27 51.6883H99.9381C99.2361 51.6883 98.3901 51.6343 97.6881 51.5803Z" fill="#F79314"/>
<path d="M130.97 42.8143L129.548 41.4823C129.206 41.5903 128.216 41.6443 127.712 41.6443H118.01C117.254 41.6443 116.498 41.5723 115.814 41.4643V43.9663C116.66 43.8943 117.254 43.8403 118.01 43.8403H127.388C126.92 44.7223 125.516 46.3063 124.076 47.1883L125.948 48.6823C127.712 47.4223 129.422 45.1543 130.268 43.7503C130.43 43.4803 130.772 43.0483 130.97 42.8143ZM123.626 45.2443H121.016C121.106 45.8203 121.142 46.3063 121.142 46.8643C121.142 49.8163 120.71 51.7243 118.424 53.3083C117.758 53.7943 117.11 54.1003 116.534 54.2983L118.64 56.0083C123.536 53.3803 123.626 49.7083 123.626 45.2443Z" fill="#F79314"/>
<path d="M74.4141 74.1023V73.5083H77.5461V74.1023H74.4141ZM74.4141 71.9423H77.5461V72.5183H74.4141V71.9423ZM82.9461 71.9423V72.5183H79.6521V71.9423H82.9461ZM82.9461 74.1023H79.6521V73.5083H82.9461V74.1023ZM86.5281 75.7043H79.6521V75.1283H85.0341V70.8983H79.6521V70.3763H85.9521V69.0263H79.6521V68.6303H81.4521V67.4423H86.5101V66.2363H81.4521V65.6603H85.8621V64.4903H81.4521V63.9143H86.1681V62.7083H81.4521V61.7723H79.4901V68.0543H77.5461V69.0263H75.5841C77.1861 68.2343 77.7621 67.0643 77.7621 65.6963V61.7543H75.8361V62.7083H71.1561V63.9143H75.8361V64.4903H71.5701V65.6603H75.8361V65.6783C75.8361 65.8403 75.8361 65.9843 75.8181 66.1283C73.8741 66.2363 72.0021 66.3083 70.6161 66.3623L70.7421 67.6043C72.0201 67.5323 73.6221 67.4423 75.2601 67.3163C74.8101 67.7483 74.0001 68.0543 72.5961 68.1983C72.7941 68.3963 73.0461 68.7203 73.2801 69.0263H71.3541V70.3763H77.5461V70.8983H72.3981V75.1283H77.5461V75.7043H70.6521V77.1083H77.5461V78.5483H79.6521V77.1083H86.5281V75.7043Z" fill="#F79314"/>
<path d="M101.414 70.9343V75.4163H97.4001V69.9803H102.926V63.4463H100.676V67.8923H97.4001V61.9343H95.2041V67.8923H92.1081V63.4463H89.9841V69.9803H95.2041V75.4163H91.4421V70.9343H89.2641V78.5663H91.4421V77.5223H101.414V78.5483H103.646V70.9343H101.414Z" fill="#F79314"/>
<path d="M152.859 64.1512C152.709 64.1512 152.6 64.1086 152.531 64.0232C152.467 63.9379 152.435 63.8206 152.435 63.6712C152.435 63.5272 152.467 63.4126 152.531 63.3272C152.6 63.2419 152.709 63.1992 152.859 63.1992C153.013 63.1992 153.125 63.2419 153.195 63.3272C153.264 63.4126 153.299 63.5272 153.299 63.6712C153.299 63.8206 153.264 63.9379 153.195 64.0232C153.125 64.1086 153.013 64.1512 152.859 64.1512ZM150.435 68.9992L150.067 68.6312L152.515 66.1512L150.059 63.6792L150.427 63.3032L152.891 65.7752L155.363 63.3112L155.731 63.6792L153.267 66.1512L155.715 68.6392L155.347 69.0072L152.891 66.5272L150.435 68.9992ZM150.379 66.6392C150.251 66.6392 150.147 66.6046 150.067 66.5352C149.987 66.4606 149.947 66.3406 149.947 66.1752C149.947 66.0099 149.987 65.8899 150.067 65.8152C150.147 65.7406 150.251 65.7032 150.379 65.7032C150.512 65.7032 150.619 65.7406 150.699 65.8152C150.779 65.8899 150.819 66.0099 150.819 66.1752C150.819 66.3406 150.779 66.4606 150.699 66.5352C150.619 66.6046 150.512 66.6392 150.379 66.6392ZM155.403 66.6392C155.275 66.6392 155.171 66.6046 155.091 66.5352C155.011 66.4606 154.971 66.3406 154.971 66.1752C154.971 66.0099 155.011 65.8899 155.091 65.8152C155.171 65.7406 155.275 65.7032 155.403 65.7032C155.536 65.7032 155.643 65.7406 155.723 65.8152C155.803 65.8899 155.843 66.0099 155.843 66.1752C155.843 66.3406 155.803 66.4606 155.723 66.5352C155.643 66.6046 155.536 66.6392 155.403 66.6392ZM152.859 69.1192C152.709 69.1192 152.6 69.0766 152.531 68.9912C152.467 68.9059 152.435 68.7886 152.435 68.6392C152.435 68.4952 152.467 68.3806 152.531 68.2952C152.6 68.2099 152.709 68.1672 152.859 68.1672C153.013 68.1672 153.125 68.2099 153.195 68.2952C153.264 68.3806 153.299 68.4952 153.299 68.6392C153.299 68.7886 153.264 68.9059 153.195 68.9912C153.125 69.0766 153.013 69.1192 152.859 69.1192Z" fill="#A2A2A4"/>
<path d="M157.39 68.4552H158.622V64.5472C158.622 64.4299 158.626 64.3112 158.634 64.1912L157.61 65.0672C157.583 65.0886 157.557 65.1046 157.53 65.1152C157.503 65.1232 157.478 65.1272 157.454 65.1272C157.414 65.1272 157.378 65.1192 157.346 65.1032C157.314 65.0846 157.29 65.0632 157.274 65.0392L157.05 64.7312L158.754 63.2552H159.334V68.4552H160.462V68.9992H157.39V68.4552Z" fill="#A2A2A4"/>
<path d="M31.8252 86.0005C32.2298 85.9963 32.6343 86.0176 33.0361 86.0643C33.3412 86.1008 33.639 86.1815 33.9197 86.3036C34.1953 86.4296 34.4492 86.5964 34.6724 86.7982C34.9654 87.0663 35.2388 87.3542 35.4905 87.6596L58.1369 115.578C58.0496 114.684 57.9815 113.82 57.9324 112.985C57.8833 112.15 57.8615 111.358 57.8669 110.608V86.0005H67.6274V132.488H61.8595C61.1228 132.507 60.39 132.377 59.7078 132.105C59.0324 131.782 58.4483 131.302 58.006 130.709L35.5233 103.007C35.5887 103.815 35.6433 104.607 35.6869 105.384C35.7305 106.16 35.7523 106.891 35.7523 107.577V132.488H26V86.0005H31.8252ZM90.6011 98.8906C93.0008 98.8609 95.3857 99.261 97.6372 100.071C99.6786 100.813 101.536 101.969 103.086 103.461C104.637 104.98 105.841 106.802 106.62 108.805C107.489 111.061 107.917 113.456 107.88 115.865C107.917 118.297 107.49 120.715 106.62 122.996C105.843 125.013 104.639 126.847 103.086 128.38C101.537 129.882 99.6804 131.048 97.6372 131.802C95.3882 132.623 93.0022 133.028 90.6011 132.998C88.1839 133.029 85.7817 132.623 83.5159 131.802C81.4599 131.049 79.5875 129.886 78.0179 128.388C76.4469 126.86 75.2304 125.021 74.4508 122.996C73.5812 120.715 73.1539 118.297 73.1909 115.865C73.1537 113.453 73.5811 111.056 74.4508 108.798C75.2337 106.788 76.4501 104.965 78.0179 103.453C79.5884 101.962 81.4611 100.807 83.5159 100.063C85.7847 99.2551 88.1858 98.8577 90.6011 98.8906ZM90.6011 125.66C91.6009 125.73 92.6023 125.545 93.5062 125.123C94.4102 124.7 95.1854 124.055 95.7554 123.251C97.0124 121.017 97.586 118.479 97.4081 115.937C97.5894 113.397 97.0155 110.86 95.7554 108.63C95.1827 107.83 94.4064 107.189 93.5028 106.769C92.5992 106.35 91.5993 106.166 90.6011 106.237C89.5859 106.16 88.5675 106.34 87.6445 106.759C86.7215 107.179 85.925 107.823 85.3322 108.63C84.0607 110.856 83.4808 113.395 83.6632 115.937C83.4825 118.483 84.0622 121.027 85.3322 123.259C85.9233 124.068 86.7191 124.715 87.6424 125.136C88.5657 125.556 89.585 125.737 90.6011 125.66ZM111.48 127.479C111.474 126.744 111.624 126.016 111.922 125.341C112.207 124.695 112.618 124.11 113.133 123.618C113.657 123.121 114.274 122.726 114.949 122.453C115.675 122.161 116.454 122.014 117.24 122.023C118.012 122.017 118.777 122.164 119.49 122.453C120.172 122.728 120.796 123.122 121.331 123.618C121.854 124.106 122.271 124.692 122.558 125.341C122.856 126.016 123.006 126.744 123 127.479C123.005 128.218 122.855 128.951 122.558 129.632C122.274 130.287 121.857 130.879 121.331 131.371C120.798 131.865 120.173 132.255 119.49 132.52C118.775 132.799 118.01 132.94 117.24 132.935C116.456 132.943 115.678 132.802 114.949 132.52C114.272 132.257 113.655 131.866 113.133 131.371C112.615 130.875 112.204 130.284 111.922 129.632C111.625 128.951 111.475 128.218 111.48 127.479Z" fill="#F79314"/>
<path d="M129.621 63.3099C130.134 63.0784 130.705 62.9736 131.276 63.0057H144.672C144.847 63.0029 145.02 63.033 145.182 63.0942C145.344 63.1553 145.49 63.2461 145.612 63.3611C145.737 63.4728 145.836 63.6069 145.903 63.7551C145.97 63.9033 146.003 64.0624 146 64.2227V132.783C146.003 132.943 145.97 133.103 145.903 133.251C145.837 133.399 145.737 133.533 145.612 133.645C145.49 133.76 145.343 133.851 145.182 133.912C145.02 133.973 144.846 134.003 144.672 134H131.724C131.549 134.003 131.375 133.973 131.213 133.911C131.051 133.85 130.904 133.759 130.782 133.644C130.657 133.533 130.557 133.398 130.491 133.25C130.424 133.102 130.391 132.942 130.394 132.782V77.2045C130.389 77.1268 130.366 77.0508 130.328 76.9812C130.29 76.9115 130.238 76.8495 130.173 76.7988C130.123 76.7379 130.052 76.6946 129.971 76.6761C129.891 76.6577 129.806 76.6652 129.73 76.6974L118.774 79.4357L118.331 79.5372C117.667 79.5372 117.335 79.1653 117.335 78.4215L117.003 69.7013C116.983 69.3982 117.069 69.0974 117.248 68.842C117.427 68.5865 117.69 68.3896 117.999 68.2795L129.621 63.3099Z" fill="#F79314"/>
<defs>
<linearGradient id="paint0_linear" x1="164" y1="25" x2="-1.85634e-06" y2="87.2885" gradientUnits="userSpaceOnUse">
<stop stop-color="#F8BD35"/>
<stop offset="1" stop-color="#F77F14"/>
</linearGradient>
</defs>
</svg>
