<svg width="127" height="126" viewBox="0 0 127 126" fill="none" xmlns="http://www.w3.org/2000/svg">
<path d="M61.7885 123.577C95.9133 123.577 123.577 95.9133 123.577 61.7885C123.577 27.6636 95.9133 0 61.7885 0C27.6636 0 0 27.6636 0 61.7885C0 95.9133 27.6636 123.577 61.7885 123.577Z" fill="white"/>
<path fill-rule="evenodd" clip-rule="evenodd" d="M61.7885 118.577C93.1519 118.577 118.577 93.1519 118.577 61.7885C118.577 30.4251 93.1519 5 61.7885 5C30.4251 5 5 30.4251 5 61.7885C5 93.1519 30.4251 118.577 61.7885 118.577ZM123.577 61.7885C123.577 95.9133 95.9133 123.577 61.7885 123.577C27.6636 123.577 0 95.9133 0 61.7885C0 27.6636 27.6636 0 61.7885 0C95.9133 0 123.577 27.6636 123.577 61.7885Z" fill="url(#paint0_linear)"/>
<path d="M60.9921 26.1082H55.4201V27.6902H60.9921V26.1082ZM50.2401 31.7502H51.1221V32.5763H50.2401V31.7502ZM50.2401 29.8323H51.1221V30.6723H50.2401V29.8323ZM53.2641 30.6723H52.3401V29.8323H53.2641V30.6723ZM53.2641 32.5763H52.3401V31.7502H53.2641V32.5763ZM54.8461 35.9922V34.5503H52.4941V33.7242H54.5801V28.6702H52.5221V27.9142H54.7481V26.4722H52.5221V25.1562H50.9541V26.4722H48.6721V27.9142H50.9541V28.6702H48.9661V33.7242H50.9541V34.5503H48.4761V35.9922H50.9541V38.2043H52.4941V35.9922H54.8461ZM61.6781 37.5743C61.4401 36.3282 60.8101 34.5223 60.0681 33.1223L58.6541 33.6823C58.9901 34.3542 59.2981 35.1383 59.5501 35.9082L57.3101 36.0623C57.6601 34.7882 58.0521 33.1362 58.3461 31.5963H61.4681V30.0283H54.8601V31.5963H56.5261C56.3301 33.1082 56.0081 34.8862 55.6721 36.1742L54.4961 36.2443L54.8041 37.8682C56.2461 37.7422 58.1221 37.5743 59.9841 37.3783C60.0541 37.6722 60.0961 37.9382 60.1381 38.1902L61.6781 37.5743Z" fill="#F79314"/>
<path d="M68.9161 35.3202V34.4802H70.2041V35.3202H68.9161ZM70.2041 32.5623V33.4023H68.9161V32.5623H70.2041ZM70.1621 27.6482C70.0921 28.1522 69.9381 28.8663 69.7981 29.3563L70.5121 29.5103H68.5101L69.1401 29.3563C69.1121 28.8942 68.9861 28.1802 68.7761 27.6482H70.1621ZM65.4861 28.6423H64.5621V27.1302H65.4861V28.6423ZM64.5621 34.5363V32.8423H65.4861V34.3682L64.5621 34.5363ZM65.4861 31.4983H64.5621V29.9862H65.4861V31.4983ZM74.0821 31.3163C73.9421 31.8483 73.7741 32.3663 73.5781 32.8563C73.5221 32.2263 73.4801 31.5403 73.4521 30.7983H75.5521V29.5103H73.3961C73.3681 28.5722 73.3541 27.5922 73.3541 26.5562C73.8161 27.2142 74.2641 28.0402 74.4601 28.6002L75.6081 27.9562C75.3701 27.3262 74.8241 26.4162 74.2501 25.7302L73.3541 26.2062V25.1562H71.8981C71.9121 26.7103 71.9401 28.1802 71.9821 29.5103H70.8621C71.0161 29.0623 71.2121 28.4322 71.4221 27.8302L70.4701 27.6482H71.6741V26.4302H70.2461V25.1702H68.8321V26.4302H67.4601V25.6743H62.6581V27.1302H63.2041V34.7603C62.9101 34.8162 62.6301 34.8582 62.3781 34.8862L62.6581 36.4122C63.4981 36.2442 64.4921 36.0343 65.4861 35.8243V38.2183H66.8721V27.1302H67.4041V27.6482H68.5101L67.6981 27.8442C67.8661 28.3622 67.9781 29.0483 68.0061 29.5103H67.1241V30.7983H72.0381C72.1081 32.4083 72.2341 33.8083 72.4161 34.9423C72.1361 35.3343 71.8281 35.6982 71.4921 36.0203V31.4142H67.6421V37.2662H68.9161V36.4542H71.0161C70.7081 36.7062 70.3721 36.9443 70.0221 37.1543C70.3161 37.4202 70.7921 37.9663 70.9741 38.2463C71.6461 37.7843 72.2621 37.2382 72.8081 36.6082C73.1441 37.6302 73.6061 38.1903 74.2361 38.2043C74.7121 38.2043 75.3701 37.7143 75.7201 35.4462C75.4821 35.2922 74.8801 34.8582 74.6421 34.5223C74.5861 35.6283 74.4741 36.2723 74.3061 36.2723C74.1381 36.2583 73.9841 35.8802 73.8581 35.2083C74.5161 34.1582 75.0341 32.9543 75.4121 31.6102L74.0821 31.3163Z" fill="#F79314"/>
<path d="M20.9661 43.3962L21.1481 45.3142C22.7721 44.9642 25.6281 44.6562 26.9441 44.5163C25.9921 45.2303 24.8581 46.8262 24.8581 48.8422C24.8581 51.8802 27.6301 53.4483 30.5701 53.6443L31.2281 51.7262C28.8481 51.6003 26.6921 50.7743 26.6921 48.4643C26.6921 46.7983 27.9661 44.9922 29.6601 44.5442C30.4021 44.3622 31.6061 44.3622 32.3621 44.3482L32.3481 42.5562C31.3541 42.5982 29.8281 42.6822 28.3861 42.8082C25.8241 43.0182 23.5141 43.2283 22.3381 43.3263C22.0721 43.3542 21.5261 43.3822 20.9661 43.3962ZM30.3601 45.7202L29.3241 46.1542C29.7721 46.7842 30.0661 47.3302 30.4161 48.1003L31.4801 47.6243C31.2141 47.0783 30.7101 46.2242 30.3601 45.7202ZM31.9281 45.0763L30.9061 45.5522C31.3541 46.1682 31.6761 46.6862 32.0541 47.4422L33.1041 46.9382C32.8101 46.3923 32.2781 45.5662 31.9281 45.0763Z" fill="#F79314"/>
<path d="M36.0441 45.8883L36.1421 47.5402C38.2561 47.6662 40.5101 47.6662 42.2321 47.5542C42.4561 48.0302 42.7221 48.5203 43.0161 49.0103C42.5961 48.9683 41.8401 48.8982 41.2521 48.8422L41.1121 50.1722C42.1341 50.2842 43.6461 50.4663 44.4301 50.6203L45.2841 49.3322C45.0321 49.0942 44.8361 48.8843 44.6541 48.6182C44.4021 48.2542 44.1641 47.8202 43.9261 47.3722C44.7661 47.2603 45.5221 47.1062 46.1661 46.9382L45.8861 45.2862C45.2001 45.4682 44.3601 45.7062 43.2121 45.8462C43.1281 45.6222 43.0441 45.4122 42.9741 45.2162C42.9041 45.0063 42.8341 44.7822 42.7641 44.5582C43.6881 44.4322 44.5701 44.2502 45.3401 44.0402L45.1161 42.4302C44.2201 42.7102 43.3241 42.9062 42.3581 43.0322C42.2601 42.5562 42.1761 42.0662 42.1061 41.5623L40.2301 41.7722C40.3981 42.2622 40.5381 42.7102 40.6781 43.1582C39.3901 43.2002 37.9621 43.1442 36.2961 42.9482L36.3941 44.5582C38.1581 44.7262 39.7961 44.7542 41.1121 44.6842C41.1961 44.9223 41.2801 45.1882 41.3921 45.5103C41.4481 45.6642 41.5041 45.8322 41.5741 46.0002C40.0201 46.0982 38.1301 46.0842 36.0441 45.8883ZM38.7321 49.1362L36.9961 48.8002C36.6741 49.4722 36.3661 50.1582 36.3941 51.0542C36.4221 53.0562 38.1581 53.8822 40.9581 53.8822C42.1061 53.8822 43.3801 53.7842 44.3601 53.6162L44.4581 51.8382C43.4641 52.0342 42.2741 52.1462 40.9441 52.1462C39.0961 52.1462 38.1161 51.7262 38.1161 50.6903C38.1161 50.0883 38.3961 49.5982 38.7321 49.1362Z" fill="#F79314"/>
<path d="M54.6081 41.7302L52.6761 41.5342C52.6481 42.2622 52.4941 43.1022 52.2981 43.8722C51.8641 43.9142 51.4441 43.9282 51.0241 43.9282C50.5061 43.9282 49.7641 43.9002 49.1621 43.8302L49.2881 45.4542C49.8901 45.4962 50.4641 45.5103 51.0381 45.5103C51.2761 45.5103 51.5141 45.5103 51.7661 45.4963C51.1501 47.0082 50.0161 49.0662 48.9101 50.4382L50.6041 51.3062C51.7381 49.7242 52.9281 47.2743 53.6001 45.3142C54.5381 45.1742 55.4061 44.9923 56.0501 44.8242L55.9941 43.2002C55.4481 43.3682 54.7901 43.5222 54.1041 43.6482C54.3141 42.8922 54.4961 42.1782 54.6081 41.7302ZM53.8801 51.4182C53.8801 50.9282 54.3981 50.5642 55.2101 50.5642C55.6021 50.5642 55.9801 50.6203 56.3441 50.7043C56.3441 50.8162 56.3441 50.9002 56.3441 50.9842C56.3441 51.7542 56.0501 52.2862 55.0841 52.2862C54.3141 52.2862 53.8801 51.9362 53.8801 51.4182ZM57.8841 46.0842H56.1341C56.1621 46.9382 56.2321 48.1842 56.2881 49.2202C55.9661 49.1922 55.6581 49.1642 55.3221 49.1642C53.3761 49.1642 52.2281 50.2143 52.2281 51.5863C52.2281 53.1263 53.6001 53.8962 55.3361 53.8962C57.3241 53.8962 58.0381 52.8883 58.0381 51.5863C58.0381 51.5443 58.0381 51.4882 58.0381 51.4462C58.8081 51.9082 59.4381 52.4963 59.9281 52.9443L60.8661 51.4462C60.1521 50.8022 59.1721 50.1022 57.9681 49.6542C57.9401 48.9542 57.8981 48.2822 57.8841 47.8762C57.8701 47.2603 57.8421 46.6722 57.8841 46.0842ZM60.2921 46.8263L61.2861 45.3562C60.5721 44.8382 58.8361 43.8862 57.8281 43.4522L56.9321 44.8382C57.8841 45.2722 59.4801 46.1823 60.2921 46.8263Z" fill="#F79314"/>
<path d="M72.8921 41.8702H70.8621C70.9181 42.0942 70.9881 42.4862 71.0161 42.8363C71.0441 43.2142 71.0581 43.9422 71.0721 44.7262C70.5401 44.7402 69.9941 44.7542 69.4901 44.7542C68.7481 44.7542 68.0621 44.6982 67.3761 44.6003V46.3783C68.0621 46.4062 68.9301 46.4482 69.5321 46.4482C70.0501 46.4482 70.5681 46.4342 71.1001 46.4202C71.1001 46.6162 71.1001 46.7843 71.1001 46.9242C71.1001 49.2902 70.8761 50.5362 69.7981 51.6562C69.4061 52.0903 68.7061 52.5382 68.1741 52.7762L69.7841 54.0502C72.5841 52.2722 72.8361 50.2423 72.8361 46.9382C72.8361 46.7983 72.8361 46.5882 72.8361 46.3503C73.6201 46.3083 74.3481 46.2522 74.9081 46.1822L74.9221 44.3622C74.3481 44.4742 73.6061 44.5583 72.8221 44.6143C72.8221 43.8442 72.8221 43.1162 72.8221 42.8222C72.8361 42.5142 72.8501 42.1782 72.8921 41.8702ZM65.9341 42.1082L63.8621 41.8982C63.8481 42.2482 63.8341 42.7242 63.7641 43.1162C63.5961 44.2502 63.3161 46.4062 63.3161 48.7022C63.3161 50.4382 63.8061 52.3983 64.1141 53.2383L65.6681 53.0842C65.6541 52.8883 65.6401 52.6502 65.6401 52.5103C65.6401 52.3423 65.6681 52.0342 65.7241 51.8242C65.8921 51.0262 66.2701 49.6122 66.6761 48.4082L65.8081 47.8482C65.5701 48.3662 65.3181 49.0382 65.1361 49.4722C64.7581 47.7362 65.2481 44.7963 65.5981 43.2423C65.6681 42.9482 65.8081 42.4443 65.9341 42.1082Z" fill="#F79314"/>
<path d="M79.8081 42.9062C79.8081 43.0602 79.7801 43.4522 79.7521 43.9842C79.1501 44.0682 78.5341 44.1383 78.1281 44.1663C77.6381 44.1943 77.3161 44.1942 76.9101 44.1802L77.0921 45.9722C77.8761 45.8603 78.9541 45.7202 79.6401 45.6362C79.6261 45.9722 79.5981 46.3082 79.5701 46.6302C78.7721 47.8062 77.3721 49.6542 76.5741 50.6342L77.6801 52.1602C78.1701 51.5022 78.8561 50.4802 79.4441 49.5982C79.4301 50.7743 79.4161 51.5863 79.3881 52.6782C79.3881 52.9023 79.3741 53.3923 79.3461 53.7143H81.2781C81.2361 53.3923 81.1941 52.8883 81.1801 52.6362C81.0961 51.3202 81.0961 50.1443 81.0961 48.9963C81.0961 48.6322 81.1101 48.2542 81.1241 47.8622C82.2721 46.6022 83.7841 45.3142 84.8201 45.3142C85.4081 45.3142 85.7721 45.6642 85.7721 46.3503C85.7721 47.6243 85.2681 49.6823 85.2681 51.1943C85.2681 52.5522 85.9681 53.3083 87.0181 53.3083C88.1521 53.3083 89.0061 52.8742 89.6501 52.2722L89.4261 50.2983C88.7821 50.9422 88.1241 51.3062 87.6061 51.3062C87.2561 51.3062 87.0741 51.0403 87.0741 50.6763C87.0741 49.2343 87.5361 47.1763 87.5361 45.7202C87.5361 44.5442 86.8501 43.6482 85.3381 43.6482C83.9801 43.6482 82.3701 44.7822 81.2641 45.7482C81.2781 45.6362 81.2781 45.5382 81.2921 45.4403C81.5301 45.0763 81.8101 44.6143 82.0061 44.3622L81.4881 43.6903C81.5861 42.8223 81.7121 42.1082 81.7961 41.7162L79.7521 41.6462C79.8221 42.0802 79.8081 42.5002 79.8081 42.9062Z" fill="#F79314"/>
<path d="M96.2441 51.3342C96.2441 50.8022 96.7901 50.4802 97.5741 50.4802C97.9661 50.4802 98.3301 50.5363 98.7081 50.6483C98.7081 50.7323 98.7081 50.8162 98.7081 50.8862C98.7081 51.7122 98.4141 52.1602 97.5461 52.1602C96.8041 52.1602 96.2441 51.9082 96.2441 51.3342ZM100.402 42.2062H98.4001C98.4561 42.4722 98.4981 42.9062 98.4981 43.1302C98.5121 43.4242 98.5121 43.9842 98.5121 44.6702C98.1901 44.6842 97.8541 44.6842 97.5321 44.6842C96.6921 44.6842 95.8801 44.6423 95.0821 44.5722L95.0961 46.2382C95.9081 46.2942 96.7201 46.3223 97.5321 46.3223C97.8541 46.3223 98.1901 46.3083 98.5261 46.3083C98.5401 47.3022 98.5961 48.3242 98.6381 49.1782C98.3441 49.1362 98.0361 49.1222 97.7141 49.1222C95.8101 49.1222 94.6061 50.1023 94.6061 51.5303C94.6061 53.0002 95.8101 53.8123 97.7421 53.8123C99.6461 53.8123 100.402 52.8603 100.472 51.5163C101.032 51.8943 101.606 52.3703 102.194 52.9163L103.132 51.4462C102.474 50.8442 101.592 50.1162 100.416 49.6402C100.36 48.6882 100.29 47.5682 100.262 46.2102C101.032 46.1542 101.774 46.0702 102.46 45.9722V44.2502C101.774 44.3902 101.032 44.4882 100.276 44.5582C100.276 43.9422 100.304 43.4102 100.318 43.1022C100.332 42.8082 100.36 42.4722 100.402 42.2062ZM93.5701 42.3462L91.6381 42.1922C91.6241 42.6402 91.5541 43.1722 91.5121 43.5642C91.3441 44.6423 90.9241 47.2882 90.9241 49.4023C90.9241 51.2922 91.1901 52.9023 91.4841 53.8682L93.0521 53.7563C93.0381 53.5603 93.0381 53.3222 93.0381 53.1682C93.0241 53.0282 93.0661 52.7202 93.1081 52.5243C93.2621 51.7542 93.7241 50.3403 94.1161 49.1782L93.2481 48.5063C93.0521 48.9683 92.8141 49.4443 92.6321 49.9342C92.5901 49.6542 92.5761 49.2903 92.5761 49.0243C92.5761 47.6243 93.0241 44.5442 93.2341 43.6062C93.2901 43.3542 93.4581 42.6402 93.5701 42.3462ZM101.55 41.6462L100.598 41.9403C100.878 42.5002 101.116 43.2702 101.312 43.8722L102.292 43.5502C102.124 43.0042 101.816 42.1922 101.55 41.6462ZM102.992 41.1982L102.04 41.4923C102.32 42.0522 102.586 42.8083 102.796 43.4102L103.762 43.1022C103.58 42.5702 103.258 41.7443 102.992 41.1982Z" fill="#F79314"/>
<path d="M19.904 70.3116C22.4 68.4636 24.536 66.3036 25.904 64.3596C27.296 66.3036 29.6 68.4876 32.096 70.3116H19.904ZM27.416 78.0876H34.136V75.5916H27.416V72.8316H33.032V70.9596C33.896 71.5596 34.76 72.0876 35.624 72.5676C36.152 71.6796 36.776 70.7676 37.52 69.9996C33.728 68.3916 29.816 65.2476 27.248 61.5996H24.296C22.52 64.5276 18.656 68.2236 14.552 70.2876C15.2 70.8876 15.992 71.9196 16.352 72.5916C17.264 72.0876 18.152 71.5356 19.016 70.9356V72.8316H24.44V75.5916H17.792V78.0876H24.44V80.9436H15.872V83.5116H36.296V80.9436H27.416V78.0876Z" fill="#F79314"/>
<path d="M57.632 70.2636H52.88V68.7996H57.632V70.2636ZM57.632 73.6956H52.88V72.2316H57.632V73.6956ZM57.632 77.1996H52.88V75.7116H57.632V77.1996ZM50.312 66.6636V79.3116H60.32V66.6636H56.072C56.264 66.1596 56.456 65.6076 56.648 65.0316H60.8V62.6076H49.592V65.0316H53.624C53.528 65.5596 53.432 66.1356 53.336 66.6636H50.312ZM41.408 65.8716H47.144V67.5276H49.52V63.6636H45.608V61.7196H42.944V63.6636H39.104V67.5276H41.408V65.8716ZM45.728 80.4876H42.824V78.2796H45.728V80.4876ZM42.872 76.0716C43.568 75.6156 44.24 75.0876 44.888 74.5116C45.608 75.0636 46.328 75.5916 46.928 76.0716H42.872ZM45.752 69.6876C45.416 70.2876 45.032 70.8636 44.576 71.3916L42.92 70.3116C43.088 70.0956 43.256 69.9036 43.424 69.6876H45.752ZM48.152 77.0796L48.2 77.1276L49.808 75.1356C49.016 74.4636 47.84 73.5996 46.544 72.7356C47.552 71.4876 48.368 70.0476 48.92 68.4156L47.312 67.6716L46.88 67.7916H44.648C44.864 67.4316 45.032 67.0716 45.2 66.6876L42.872 66.1116C42.008 68.1276 40.352 69.9516 38.48 71.1276C39.008 71.4636 39.896 72.3276 40.28 72.7836C40.64 72.5436 40.976 72.2556 41.312 71.9676L42.896 73.0716C41.576 74.1756 40.064 75.0396 38.48 75.5916C38.984 76.0476 39.608 77.0076 39.92 77.6316L40.424 77.4156V83.6316H42.824V82.6716H48.152C48.632 83.1276 49.16 83.6556 49.472 84.0396C51.224 83.3436 53.336 82.0716 54.584 80.8476L52.28 79.4076C51.416 80.2956 49.736 81.3996 48.152 82.0476V77.0796ZM55.64 80.8236C56.936 81.7836 58.616 83.1996 59.384 84.1116L61.592 82.6476C60.728 81.7356 58.976 80.4156 57.704 79.5276L55.64 80.8236Z" fill="#F79314"/>
<path d="M80.288 70.0476C79.808 71.3436 79.184 72.5196 78.392 73.5516C77.552 72.5196 76.88 71.3436 76.376 70.0476H80.288ZM81.944 67.4316L81.416 67.5036H73.832V65.2716H84.296V62.6076H71.096V68.1756C71.096 71.1996 70.88 75.3756 68.624 78.2316C69.296 78.4956 70.52 79.2876 71.024 79.7676C72.968 77.2236 73.592 73.5276 73.784 70.4076C74.456 72.3756 75.344 74.0796 76.472 75.5436C75.272 76.5516 73.856 77.3436 72.32 77.8476C72.872 78.3996 73.592 79.5276 73.928 80.2476C75.608 79.5756 77.12 78.7116 78.44 77.6076C79.832 78.7836 81.464 79.6956 83.432 80.3196C83.816 79.5516 84.632 78.3996 85.256 77.8476C83.36 77.3436 81.776 76.5756 80.432 75.5436C81.968 73.5996 83.12 71.1036 83.768 68.0076L81.944 67.4316ZM69.176 65.8956C68.384 64.7676 66.656 63.2556 65.264 62.2236L63.128 63.9276C64.52 65.0076 66.2 66.6396 66.896 67.7676L69.176 65.8956ZM68.552 70.9836H63.128V73.5996H65.768V78.6636C64.736 79.4796 63.56 80.2956 62.6 80.8716L63.992 83.8476C65.264 82.8396 66.296 81.9036 67.328 80.9676C68.888 82.8396 70.88 83.5116 73.856 83.6316C76.736 83.7516 81.56 83.7036 84.464 83.5596C84.584 82.7436 85.016 81.3516 85.352 80.6796C82.16 80.9196 76.712 80.9916 73.904 80.8716C71.384 80.7756 69.56 80.1276 68.552 78.5196V70.9836Z" fill="#F79314"/>
<path d="M96.368 76.1436V80.9436H93.128L95.096 80.1036C94.736 78.9996 93.8 77.3676 92.888 76.1436H96.368ZM93.656 68.8236C95.384 67.3836 96.872 65.8236 97.904 64.3836C98.96 65.8236 100.544 67.3836 102.32 68.8236H93.656ZM102.704 76.1436C102.176 77.4156 101.216 79.1676 100.424 80.2956L101.984 80.9436H99.368V76.1436H106.76V73.6956H99.368V71.3196H103.952V70.0716C105.152 70.9356 106.4 71.7276 107.6 72.3516C108.128 71.4636 108.776 70.5036 109.496 69.7836C105.704 68.2476 101.84 65.2236 99.248 61.5996H96.296C94.52 64.4796 90.68 68.0796 86.6 70.0716C87.224 70.6716 88.016 71.7036 88.376 72.3756C89.6 71.7276 90.824 70.9596 91.952 70.1436V71.3196H96.368V73.6956H89.072V76.1436H92.744L90.56 77.0796C91.4 78.2556 92.192 79.8636 92.552 80.9436H87.872V83.3916H108.176V80.9436H102.752C103.592 79.9356 104.528 78.4716 105.44 77.1516L102.704 76.1436Z" fill="#F79314"/>
<path d="M107.859 59.1512C107.709 59.1512 107.6 59.1086 107.531 59.0232C107.467 58.9379 107.435 58.8206 107.435 58.6712C107.435 58.5272 107.467 58.4126 107.531 58.3272C107.6 58.2419 107.709 58.1992 107.859 58.1992C108.013 58.1992 108.125 58.2419 108.195 58.3272C108.264 58.4126 108.299 58.5272 108.299 58.6712C108.299 58.8206 108.264 58.9379 108.195 59.0232C108.125 59.1086 108.013 59.1512 107.859 59.1512ZM105.435 63.9992L105.067 63.6312L107.515 61.1512L105.059 58.6792L105.427 58.3032L107.891 60.7752L110.363 58.3112L110.731 58.6792L108.267 61.1512L110.715 63.6392L110.347 64.0072L107.891 61.5272L105.435 63.9992ZM105.379 61.6392C105.251 61.6392 105.147 61.6046 105.067 61.5352C104.987 61.4606 104.947 61.3406 104.947 61.1752C104.947 61.0099 104.987 60.8899 105.067 60.8152C105.147 60.7406 105.251 60.7032 105.379 60.7032C105.512 60.7032 105.619 60.7406 105.699 60.8152C105.779 60.8899 105.819 61.0099 105.819 61.1752C105.819 61.3406 105.779 61.4606 105.699 61.5352C105.619 61.6046 105.512 61.6392 105.379 61.6392ZM110.403 61.6392C110.275 61.6392 110.171 61.6046 110.091 61.5352C110.011 61.4606 109.971 61.3406 109.971 61.1752C109.971 61.0099 110.011 60.8899 110.091 60.8152C110.171 60.7406 110.275 60.7032 110.403 60.7032C110.536 60.7032 110.643 60.7406 110.723 60.8152C110.803 60.8899 110.843 61.0099 110.843 61.1752C110.843 61.3406 110.803 61.4606 110.723 61.5352C110.643 61.6046 110.536 61.6392 110.403 61.6392ZM107.859 64.1192C107.709 64.1192 107.6 64.0766 107.531 63.9912C107.467 63.9059 107.435 63.7886 107.435 63.6392C107.435 63.4952 107.467 63.3806 107.531 63.2952C107.6 63.2099 107.709 63.1672 107.859 63.1672C108.013 63.1672 108.125 63.2099 108.195 63.2952C108.264 63.3806 108.299 63.4952 108.299 63.6392C108.299 63.7886 108.264 63.9059 108.195 63.9912C108.125 64.0766 108.013 64.1192 107.859 64.1192Z" fill="#A2A2A4"/>
<path d="M113.722 58.2032C113.965 58.2032 114.189 58.2379 114.394 58.3072C114.599 58.3766 114.775 58.4752 114.922 58.6032C115.071 58.7312 115.187 58.8859 115.27 59.0672C115.353 59.2486 115.394 59.4499 115.394 59.6712C115.394 59.8526 115.37 60.0152 115.322 60.1592C115.277 60.3006 115.21 60.4259 115.122 60.5352C115.037 60.6419 114.933 60.7326 114.81 60.8072C114.687 60.8819 114.55 60.9419 114.398 60.9872C114.771 61.0859 115.051 61.2512 115.238 61.4832C115.427 61.7152 115.522 62.0059 115.522 62.3552C115.522 62.6192 115.471 62.8566 115.37 63.0672C115.271 63.2779 115.135 63.4579 114.962 63.6072C114.789 63.7539 114.586 63.8672 114.354 63.9472C114.125 64.0246 113.878 64.0632 113.614 64.0632C113.31 64.0632 113.05 64.0259 112.834 63.9512C112.618 63.8739 112.435 63.7686 112.286 63.6352C112.137 63.5019 112.014 63.3446 111.918 63.1632C111.822 62.9792 111.741 62.7806 111.674 62.5672L111.978 62.4392C112.034 62.4152 112.09 62.4032 112.146 62.4032C112.199 62.4032 112.246 62.4152 112.286 62.4392C112.329 62.4606 112.361 62.4952 112.382 62.5432C112.387 62.5539 112.393 62.5659 112.398 62.5792C112.403 62.5899 112.409 62.6019 112.414 62.6152C112.451 62.6926 112.497 62.7806 112.55 62.8792C112.603 62.9752 112.675 63.0659 112.766 63.1512C112.857 63.2366 112.969 63.3086 113.102 63.3672C113.238 63.4259 113.406 63.4552 113.606 63.4552C113.806 63.4552 113.981 63.4232 114.13 63.3592C114.282 63.2926 114.407 63.2072 114.506 63.1032C114.607 62.9992 114.683 62.8832 114.734 62.7552C114.785 62.6272 114.81 62.5006 114.81 62.3752C114.81 62.2206 114.789 62.0792 114.746 61.9512C114.706 61.8232 114.631 61.7126 114.522 61.6192C114.415 61.5259 114.266 61.4526 114.074 61.3992C113.885 61.3459 113.641 61.3192 113.342 61.3192V60.8032C113.585 60.8006 113.791 60.7739 113.962 60.7232C114.135 60.6726 114.277 60.6032 114.386 60.5152C114.495 60.4272 114.574 60.3219 114.622 60.1992C114.673 60.0766 114.698 59.9406 114.698 59.7912C114.698 59.6259 114.671 59.4819 114.618 59.3592C114.567 59.2366 114.497 59.1352 114.406 59.0552C114.315 58.9752 114.207 58.9152 114.082 58.8752C113.959 58.8352 113.826 58.8152 113.682 58.8152C113.538 58.8152 113.405 58.8366 113.282 58.8792C113.159 58.9219 113.05 58.9819 112.954 59.0592C112.861 59.1339 112.782 59.2246 112.718 59.3312C112.654 59.4352 112.606 59.5486 112.574 59.6712C112.553 59.7486 112.521 59.8046 112.478 59.8392C112.435 59.8739 112.381 59.8912 112.314 59.8912C112.301 59.8912 112.286 59.8912 112.27 59.8912C112.257 59.8886 112.241 59.8859 112.222 59.8832L111.85 59.8192C111.887 59.5579 111.959 59.3272 112.066 59.1272C112.173 58.9246 112.307 58.7552 112.47 58.6192C112.635 58.4832 112.823 58.3806 113.034 58.3112C113.247 58.2392 113.477 58.2032 113.722 58.2032Z" fill="#A2A2A4"/>
<defs>
<linearGradient id="paint0_linear" x1="114.5" y1="8.5" x2="1.18063e-07" y2="61.7885" gradientUnits="userSpaceOnUse">
<stop stop-color="#F8BD35"/>
<stop offset="1" stop-color="#F77F14"/>
</linearGradient>
</defs>
</svg>
